<svg width="24" height="25" viewBox="0 0 24 25" fill="none" xmlns="http://www.w3.org/2000/svg">
<path d="M9 16.1152C8.41538 16.1152 7.91667 15.9088 7.50385 15.496C7.09103 15.0832 6.88463 14.5844 6.88463 13.9998C6.88463 13.4152 7.09103 12.9165 7.50385 12.5037C7.91667 12.0909 8.41538 11.8844 9 11.8844C9.58462 11.8844 10.0833 12.0909 10.4962 12.5037C10.909 12.9165 11.1154 13.4152 11.1154 13.9998C11.1154 14.5844 10.909 15.0832 10.4962 15.496C10.0833 15.9088 9.58462 16.1152 9 16.1152ZM5.61538 21.4998C5.15513 21.4998 4.77083 21.3457 4.4625 21.0373C4.15417 20.729 4 20.3447 4 19.8844V7.11519C4 6.65494 4.15417 6.27065 4.4625 5.96232C4.77083 5.65399 5.15513 5.49982 5.61538 5.49982H7.3846V3.26904H8.46152V5.49982H15.6154V3.26904H16.6154V5.49982H18.3846C18.8449 5.49982 19.2292 5.65399 19.5375 5.96232C19.8458 6.27065 20 6.65494 20 7.11519V19.8844C20 20.3447 19.8458 20.729 19.5375 21.0373C19.2292 21.3457 18.8449 21.4998 18.3846 21.4998H5.61538ZM5.61538 20.4998H18.3846C18.5385 20.4998 18.6795 20.4357 18.8077 20.3075C18.9359 20.1793 19 20.0383 19 19.8844V11.1152H5V19.8844C5 20.0383 5.0641 20.1793 5.1923 20.3075C5.32052 20.4357 5.46154 20.4998 5.61538 20.4998Z" fill="#BABABA"/>
</svg>
