<svg width="24" height="25" viewBox="0 0 24 25" fill="none" xmlns="http://www.w3.org/2000/svg">
<path d="M12.0034 12.2308C12.4486 12.2308 12.8285 12.0723 13.1433 11.7552C13.458 11.4382 13.6154 11.0571 13.6154 10.612C13.6154 10.1668 13.4569 9.78686 13.1399 9.47213C12.8229 9.15738 12.4418 9 11.9966 9C11.5515 9 11.1715 9.15851 10.8567 9.47552C10.542 9.79252 10.3846 10.1736 10.3846 10.6188C10.3846 11.064 10.5431 11.4439 10.8601 11.7587C11.1772 12.0734 11.5583 12.2308 12.0034 12.2308ZM12 21.5192C9.65002 19.441 7.87983 17.5029 6.68944 15.7048C5.49906 13.9067 4.90387 12.2705 4.90387 10.7962C4.90387 8.68077 5.59265 6.93589 6.97022 5.56153C8.34777 4.18717 10.0244 3.5 12 3.5C13.9757 3.5 15.6523 4.18717 17.0298 5.56153C18.4074 6.93589 19.0962 8.68077 19.0962 10.7962C19.0962 12.2705 18.501 13.9067 17.3106 15.7048C16.1202 17.5029 14.35 19.441 12 21.5192Z" fill="#BABABA"/>
</svg>
