<svg width="16" height="16" viewBox="0 0 16 16" fill="none" xmlns="http://www.w3.org/2000/svg">
<path d="M12.6861 7.38064C13.5491 6.30189 13.5491 4.55431 12.6861 3.47557C11.8231 2.39682 10.425 2.39682 9.56202 3.47557L9.17194 3.96316C9.06493 4.09692 9.06493 4.31699 9.17194 4.45075C9.27895 4.58452 9.45501 4.58452 9.56202 4.45075L9.95209 3.96316C10.5993 3.1541 11.6487 3.1541 12.296 3.96316C12.9432 4.77222 12.9432 6.08398 12.296 6.89304L10.1454 9.57912C9.49988 10.386 8.4522 10.386 7.80495 9.57912C7.1905 8.81106 7.15598 7.58128 7.72383 6.76143L7.81531 6.62983C7.91542 6.48527 7.90333 6.26737 7.78769 6.14223C7.67205 6.0171 7.49772 6.0322 7.39762 6.17675L7.30614 6.30836C6.54843 7.40221 6.59503 9.04191 7.41315 10.0646C8.27442 11.1412 9.67248 11.1412 10.5338 10.0646L12.6861 7.38064ZM3.31391 7.38064C2.45091 8.45938 2.45091 10.207 3.31391 11.2857C4.1769 12.3645 5.57496 12.3645 6.43796 11.2857L6.82804 10.7981C6.93505 10.6643 6.93505 10.4443 6.82804 10.3105C6.72103 10.1768 6.54497 10.1768 6.43796 10.3105L6.04789 10.7981C5.40064 11.6072 4.35123 11.6072 3.70398 10.7981C3.05673 9.98905 3.05673 8.67729 3.70398 7.86823L5.85457 5.18215C6.5001 4.37524 7.54778 4.37524 8.19503 5.18215C8.80948 5.95021 8.844 7.17999 8.27615 7.99984L8.18467 8.13144C8.08456 8.276 8.09665 8.4939 8.21229 8.61904C8.32793 8.74417 8.50225 8.72907 8.60236 8.58452L8.69384 8.45291C9.45155 7.35906 9.40495 5.71936 8.58683 4.69671C7.7221 3.6158 6.32577 3.6158 5.46277 4.69239L3.31391 7.38064Z" fill="#296CF6"/>
</svg>
